<svg viewBox="0 0 404 285" fill="none" xmlns="http://www.w3.org/2000/svg">
<g clip-path="url(#clip0_5594_30465)">
<path d="M132.083 242.619C132.083 242.619 168.583 288.537 218.532 284.773C268.48 281.009 313.62 247.487 275.834 207.654C262.47 193.56 132.069 202.263 132.069 202.263C132.069 202.263 121.081 228.766 132.069 242.619H132.083Z" fill="#CDCCCC"/>
<path d="M9.54563 240.172C15.3154 238.714 20.1943 238.842 26.6995 239.068C31.7905 239.238 37.7017 238.46 42.6938 239.464C46.1726 240.158 59.5648 244.346 55.7607 248.223C53.4273 250.601 44.3342 251.662 40.9261 252.511C35.7078 253.798 29.1884 254.011 23.5318 254.648C18.7377 255.185 12.4447 255.157 7.70721 253.756C2.65862 252.256 -0.141435 250.19 -1.81166e-05 245.988C0.155541 241.573 4.80816 241.375 9.53149 240.172H9.54563Z" fill="#CDCCCC"/>
<path d="M59.2113 233.707C67.8236 231.528 75.0924 231.726 84.7936 232.051C92.3877 232.306 101.212 231.146 108.665 232.631C113.841 233.679 133.837 239.919 128.152 245.706C124.659 249.258 111.111 250.843 106.02 252.102C98.2282 254.027 88.5129 254.352 80.0703 255.286C72.9146 256.093 63.5245 256.05 56.4678 253.956C48.9303 251.72 44.7585 248.635 44.9706 242.381C45.211 235.787 52.1404 235.49 59.1972 233.707H59.2113Z" fill="#CDCCCC"/>
<path d="M123.867 193.971L106.643 202.858L121.916 232.516L92.3736 247.756L77.1005 218.097L16.0508 249.567L5.21826 228.512L20.3357 103.763L48.2232 89.3867L94.5514 179.368L111.776 170.482L123.881 193.985L123.867 193.971ZM64.9952 194.594L52.494 170.312C50.4151 166.265 47.5444 160.308 43.9099 152.44C40.2614 144.573 38.225 139.96 37.7866 138.63L37.0088 139.04C37.3482 145.634 37.1361 152.355 36.3583 159.19L30.546 212.366L64.9952 194.608V194.594Z" fill="#231F20"/>
<path d="M328.908 238.177C338.156 235.828 345.948 236.054 356.371 236.408C364.516 236.677 373.991 235.432 381.995 237.045C387.553 238.163 409.02 244.87 402.925 251.082C399.178 254.903 384.64 256.601 379.167 257.945C370.809 260.011 360.373 260.35 351.308 261.369C343.629 262.232 333.546 262.176 325.98 259.94C317.891 257.549 313.408 254.223 313.649 247.516C313.903 240.441 321.342 240.13 328.922 238.205L328.908 238.177Z" fill="#CDCCCC"/>
<path d="M398.64 213.541H379.266V246.908H346.019V213.541H277.333V189.868L347.886 85.9062H379.252V187.123H398.626V213.556L398.64 213.541ZM346.019 187.109V159.799C346.019 155.242 346.203 148.634 346.571 139.974C346.938 131.314 347.235 126.277 347.447 124.89H346.571C343.855 130.904 340.589 136.791 336.77 142.507L307.271 187.109H346.019Z" fill="#231F20"/>
<path d="M203.287 154.07C115.722 145.735 120.728 227.071 141.813 246.428C192.299 292.799 283.47 256.518 286.666 223.831C294.303 145.735 220.059 155.669 203.301 154.07H203.287Z" fill="#F9C98A" stroke="#231F20" stroke-width="1.5" stroke-miterlimit="10"/>
<path d="M204.857 177.687C146.183 172.847 149.534 220.067 163.662 231.316C197.489 258.244 258.567 237.174 260.702 218.199C265.822 172.847 216.085 178.606 204.857 177.701V177.687Z" fill="#8B5E3C"/>
<path d="M198.182 266.535C198.182 266.535 200.444 261.569 203.329 257.96C208.251 251.805 214.869 252.739 224.146 251.805C233.423 250.871 267.434 249.201 272.214 243.499C276.979 237.796 266.783 233.891 266.783 233.891L199.03 246.781L177.945 253.659L173.448 264.314L198.182 266.535Z" fill="#8B5E3C"/>
<path d="M252.67 138.447C252.67 138.447 282.876 115.085 292.337 119.146C301.798 123.193 303.792 132.306 303.693 149.272C303.665 154.465 274.971 172.874 266.302 170.582C257.633 168.304 252.67 138.447 252.67 138.447Z" fill="#8B5E3C" stroke="#231F20" stroke-width="1.5" stroke-miterlimit="10"/>
<path d="M272.737 157.89C276.88 154.65 282 152.386 287.529 151.169C291.559 150.277 298.545 147.829 302.519 148.183C307.285 155.456 292.733 165.333 286.864 168.376C284.206 169.748 276.003 173.781 273.755 170.838C272.906 169.72 274.038 165.517 273.797 164.074C273.43 161.824 272.143 160.126 272.228 157.395L272.751 157.904L272.737 157.89Z" fill="#F9C98A" stroke="#231F20" stroke-width="1.5" stroke-miterlimit="10"/>
<path d="M141.983 173.895C143.623 190.267 154.328 208.634 170.902 222.699C187.59 236.863 234.978 237.854 254.041 218.1C265.638 206.072 273.189 181.111 274.505 174.305C275.834 167.499 160.013 145.453 141.983 173.881V173.895Z" fill="#C49A6C" stroke="#231F20" stroke-width="1.5" stroke-miterlimit="10"/>
<path d="M145.73 131.401C141.106 142.551 139.465 154.579 140.512 166.409C142.336 187.04 163.803 210.614 189.442 213.883C258.623 222.712 273.953 181.549 275.565 167.795C276.81 157.168 273.882 143.881 267.688 134.74C260.391 123.958 253.108 114.194 236.845 108.336C224.867 104.02 221.204 104.261 208.024 103.426C169.46 100.992 148.813 123.958 145.716 131.415L145.73 131.401Z" fill="#F9C98A" stroke="#231F20" stroke-width="1.5" stroke-miterlimit="10"/>
<path d="M175.484 120.534C157.284 129.491 145.179 153.9 152.787 171.645C158.132 184.097 166.632 203.426 182.88 207.544C197.757 211.308 214.869 212.822 229.18 207.657C239.221 204.035 249.955 196.634 255.639 188.852C262.343 179.682 269.809 164.584 265.553 154.042C261.933 145.057 259.458 133.835 249.573 125.43C233.946 112.157 198.083 109.426 175.498 120.534H175.484Z" fill="#8B5E3C"/>
<path d="M207.218 122.232C195.523 123.619 184.252 126.916 174.226 131.6C156.747 139.765 144.457 159.575 152.009 174.503C157.298 184.975 165.727 201.247 181.735 204.728C196.4 207.926 213.257 209.228 227.328 204.926C237.199 201.912 247.748 195.7 253.334 189.177C259.91 181.494 265.836 170.824 261.621 161.952C258.029 154.396 253.942 146.995 248.625 139.878C246.504 137.034 244.694 133.128 241.781 130.708C239.702 128.982 233.578 126.633 230.411 126.364C229.986 126.647 215.067 121.313 207.232 122.247L207.218 122.232Z" fill="#C49A6C"/>
<path d="M181.056 234.175C163.817 233.652 143.821 244.307 150.991 264.315C155.361 276.513 172.628 278.72 181.806 272.678C185.44 270.556 196.499 266.028 198.408 253.519C201.081 248.198 204.418 248.793 210.641 247.703C214.812 246.967 233.395 245.524 238.316 245.085C245.896 244.392 253.745 244.647 261.339 244.222C268.254 243.84 285.266 240.869 282.735 230.85C280.062 220.252 260.66 223.52 253.49 226.195C243.053 230.086 232.263 231.388 221.53 234.954C215.364 237.006 209.806 240.43 203.64 242.298C197.857 244.052 189.485 233.171 181.056 234.175Z" fill="#007CA4" stroke="#231F20" stroke-width="1.5" stroke-miterlimit="10"/>
<path d="M187.773 239.806C183.206 234.839 170.407 237.103 165.486 240.174C162.007 242.339 155.643 249.626 154.993 253.702C153.876 260.635 157.34 271.644 179.02 264.215C202.976 256.008 187.773 239.806 187.773 239.806Z" fill="#00546F"/>
<path d="M158.132 266.564C160.466 268.503 162.955 269.21 165.642 269.804C168.399 270.413 171.468 270.809 174.367 270.568C177.054 270.342 179.529 268.87 182.131 267.753C187.83 265.29 192.242 261.838 194.689 255.994C196.923 250.659 198.988 245.565 204.984 244.306C212.281 242.777 219.635 241.447 226.932 241.207C234.229 240.952 241.017 239.395 248.385 239.395C252.344 239.395 256.007 238.575 259.939 238.363C263.276 238.193 266.316 238.221 269.3 237.16C272.921 235.872 278.903 234.217 279.737 229.858C280.09 229.844 280.303 229.887 280.614 229.929C281.604 236.311 271.337 239.933 266.755 240.683C260.9 241.645 254.338 242.509 248.597 242.48C241.781 242.438 236.025 244.277 229.308 244.277C222.265 244.277 215.831 245.438 208.901 245.82C205.62 246.004 203.541 246.004 201.109 247.857C198.281 250.008 197.545 253.376 196.527 256.588C194.816 261.965 189.725 266.422 184.818 268.687C179.303 271.234 168.88 279.384 154.456 266.861C153.296 265.842 151.641 262.319 151.91 260.861C152.306 260.734 156.591 265.248 158.161 266.564H158.132Z" fill="#00546F"/>
<path d="M169.743 172.196C171.892 166.281 178.723 167.06 182.47 167.937C189.004 169.465 203.923 185.455 210.754 180.771C216.212 177.036 220.865 174.375 227.116 171.941C231.16 170.357 242.29 163.083 246.391 167.314C249.728 170.753 242.969 172.253 244.821 174.955C247.14 178.352 251.793 173.654 252.486 180.064C253.391 188.455 245.104 190.591 238.938 192.997C232.207 195.629 225.39 198.841 218.178 200.766C212.154 202.379 205.649 202.265 199.158 202.265C187.477 202.265 172.642 198.148 165.755 187.691C162.898 183.375 160.268 177.842 159.052 172.918C158.345 170.074 157.666 166.451 158.076 163.381C158.557 159.801 162.106 156.758 164.171 161.244C165.316 163.72 164.426 167.201 165.415 169.819C166.222 171.941 168.102 178.054 170.775 173.88C169.446 173.456 169.743 172.224 169.743 172.224V172.196Z" fill="#8B5E3C"/>
<path d="M185.468 134.485C176.969 138.475 163.718 148.875 161.413 158.88C160.452 163.04 179.189 147.248 185.582 152.781C189.937 156.545 160.551 167.285 162.092 174.049C164.27 183.643 185.101 162.686 187.957 164.483C194.632 168.686 160.31 177.926 167.169 188.482C173.476 198.189 191.733 173.978 195.523 177.261C201.166 182.143 174.579 195.133 181.749 201.245C184.79 203.835 195.382 186.487 199.341 186.883C203.824 187.336 202.396 204.09 206.624 202.788C213.186 200.778 200.572 127.381 185.454 134.47L185.468 134.485Z" fill="#EACDAE"/>
<path d="M172.797 147.843C176.63 143.683 180.151 142.183 186.161 142.211C189.796 142.24 191.563 142.608 193.062 145.749C194.491 148.72 195.679 151.72 196.753 154.805C197.8 157.805 199.667 160.394 200.713 163.394C201.618 166.012 202.368 168.361 203.358 171.106C204.234 173.582 208.251 183.94 204.828 185.454C204.333 183.997 204.828 181.464 202.948 181.025C200.925 180.544 200.77 183.544 198.521 182.681C198.521 179.115 203.881 176.37 200.543 173.469C199.172 172.266 196.598 171.87 194.802 172.323C193.02 172.776 191.86 174.743 189.683 173.809C189.838 169.153 195.933 168.234 195.467 163.239C194.759 155.597 187.858 162.46 183.941 161.399C185.483 158.244 188.862 156.814 189.372 153.079C189.866 149.428 186.685 147.758 183.545 147.489C180.392 147.221 178.737 147.829 176.234 149.244C175.668 149.569 173.858 150.815 173.08 150.772C169.474 150.546 172.769 147.843 172.769 147.843H172.797Z" fill="white"/>
<path d="M207.784 127.692C215.081 126.334 232.659 125.725 234.031 134.781C235.332 143.342 217.372 134.894 215.576 143.031C214.346 148.578 238.217 141.319 240.112 147.814C242.799 157.025 220.144 151.04 219.055 154.096C216.495 161.299 242.954 150.064 242.997 162.657C243.025 174.232 220.667 164.101 219.592 168.94C217.994 176.128 241.003 172.294 238.924 181.35C238.047 185.184 223.637 176.553 221.219 179.072C218.475 181.93 226.621 195.118 223.283 196.363C218.122 198.302 194.83 130.098 207.784 127.678V127.692Z" fill="#EACDAE"/>
<path d="M221.841 131.867C217.542 130.523 214.586 131.202 210.669 134.541C208.293 136.565 207.303 137.852 207.671 141.291C208.024 144.56 208.519 147.715 209.142 150.885C209.75 153.97 209.637 157.153 210.245 160.238C210.768 162.912 211.291 165.29 211.829 168.12C212.309 170.667 214.134 181.534 217.033 180.912C216.736 179.426 215.336 177.572 216.368 176.171C217.485 174.657 218.871 177.063 219.988 175.11C218.461 172.138 213.766 172.804 214.699 168.544C215.095 166.79 216.594 165.035 217.966 164.412C219.324 163.804 220.936 164.809 221.954 162.828C219.847 159.021 215.463 161.625 213.625 157.196C210.796 150.432 218.277 152.356 220.384 149.3C218.023 147.531 215.18 148.196 213.243 145.352C211.348 142.579 212.719 139.423 214.657 137.485C216.608 135.532 217.952 135.107 220.2 134.923C220.71 134.881 222.435 134.923 222.916 134.456C225.178 132.277 221.855 131.839 221.855 131.839L221.841 131.867Z" fill="white"/>
<g opacity="0.5">
<path d="M185.525 90.1936C185.525 76.949 188.763 69.1947 196.018 58.0584C202.764 47.7146 206.539 35.602 208.661 23.6734C210.386 13.9946 209.467 8.40524 205.04 0C216.269 0 220.511 21.5225 217.697 35.9416C215.251 48.4504 204.065 58.9499 199.907 70.355C196.159 80.6139 197.545 99.2639 200.331 108.815C203.683 120.319 209.99 132.404 208.251 144.729C207.246 135.588 185.482 121.253 185.525 90.2078V90.1936Z" fill="#C2B59B"/>
<path d="M216.439 97.1827C216.297 101.923 217.202 111.871 217.23 113.144C204.913 89.0605 215.208 65.7975 224.909 45.7891C225.913 67.7502 216.439 75.4197 216.439 97.1827Z" fill="#C2B59B"/>
</g>
</g>
<defs>
<clipPath id="clip0_5594_30465">
<rect width="404" height="285" fill="white"/>
</clipPath>
</defs>
</svg>
