<svg viewBox="0 0 9 6" fill="none" xmlns="http://www.w3.org/2000/svg">
<path d="M3.76994 0.63153C3.86362 0.537735 3.99071 0.48498 4.12328 0.484863H4.37661C4.50889 0.486399 4.63546 0.538941 4.72994 0.63153L8.14994 4.0582C8.21305 4.12079 8.24854 4.20598 8.24854 4.29486C8.24854 4.38374 8.21305 4.46894 8.14994 4.53153L7.67661 5.00486C7.61517 5.06757 7.53107 5.10291 7.44328 5.10291C7.35548 5.10291 7.27139 5.06757 7.20994 5.00486L4.24994 2.0382L1.28994 5.00486C1.22735 5.06797 1.14215 5.10346 1.05328 5.10346C0.964396 5.10346 0.879198 5.06797 0.816609 5.00486L0.349942 4.53153C0.286838 4.46894 0.251343 4.38374 0.251343 4.29486C0.251343 4.20598 0.286838 4.12079 0.349942 4.0582L3.76994 0.63153Z" fill="#00546F"/>
</svg>
