<svg width="27" height="27" viewBox="0 0 27 27" fill="none" xmlns="http://www.w3.org/2000/svg">
<rect x="0.860352" y="0.172729" width="25.3173" height="26.1062" rx="12.6586" fill="#00546F"/>
<path d="M18.8116 15.3516C18.1122 17.0929 17.1094 18.4171 15.8631 19.1218C14.6474 19.8092 13.0944 19.9673 11.1285 19.1777C9.16253 18.388 8.15038 17.1996 7.74791 15.8623C7.33532 14.4913 7.5271 12.8414 8.22651 11.1001C8.92591 9.35876 9.92871 8.03456 11.175 7.32989C12.3907 6.64249 13.9437 6.48439 15.9097 7.27402C17.6964 7.99166 18.7252 9.17579 19.1712 10.5545C19.6242 11.9549 19.5003 13.6369 18.8116 15.3516Z" stroke="white" stroke-width="1.5"/>
<path d="M16.5265 7.71525C16.5264 7.83734 16.4902 11.3632 13.6826 12.8518C10.9036 14.3253 10.2558 15.7753 10.1418 18.6124" stroke="white" stroke-width="1.5"/>
</svg>
