<svg width="27" height="27" viewBox="0 0 27 27" fill="none" xmlns="http://www.w3.org/2000/svg">
<rect x="0.783691" y="0.769531" width="25.3173" height="26.1062" rx="12.6586" fill="#00546F"/>
<path d="M18.7349 15.9484C18.0355 17.6897 17.0327 19.0139 15.7864 19.7186C14.5707 20.406 13.0177 20.5641 11.0518 19.7745C9.08587 18.9849 8.07372 17.7964 7.67125 16.4591C7.25866 15.0881 7.45044 13.4382 8.14985 11.6969C8.84925 9.95556 9.85205 8.63137 11.0983 7.92669C12.3141 7.23929 13.8671 7.08119 15.833 7.87082C17.6197 8.58847 18.6485 9.77259 19.0945 11.1513C19.5476 12.5517 19.4237 14.2337 18.7349 15.9484Z" stroke="white" stroke-width="1.5"/>
<path d="M16.4499 8.31166C16.4497 8.43375 16.4136 11.9596 13.606 13.4482C10.8269 14.9217 10.1791 16.3717 10.0652 19.2088" stroke="white" stroke-width="1.5"/>
</svg>
