<svg width="14" height="14" viewBox="0 0 14 14" fill="none" xmlns="http://www.w3.org/2000/svg">
<path fill-rule="evenodd" clip-rule="evenodd" d="M4.99171 1.75528C5.21244 1.10688 5.82141 0.670898 6.50635 0.670898H7.8845C8.56944 0.670898 9.17841 1.10688 9.39914 1.75528L9.64487 2.47711L13.1163 2.47711C13.4477 2.47711 13.7163 2.74574 13.7163 3.07711C13.7163 3.40848 13.4477 3.67711 13.1163 3.67711H12.7176L11.7673 11.5968C11.6105 12.9035 10.5019 13.887 9.18579 13.887H5.20508C3.88896 13.887 2.78041 12.9035 2.6236 11.5968L1.67324 3.67711H1.31631C0.984938 3.67711 0.716309 3.40848 0.716309 3.07711C0.716309 2.74574 0.984938 2.47711 1.31631 2.47711L4.74597 2.47711L4.99171 1.75528ZM6.50635 1.8709C6.33511 1.8709 6.18287 1.97989 6.12769 2.14199L6.05207 2.36412H8.33878L8.26316 2.14199C8.20798 1.97989 8.05574 1.8709 7.8845 1.8709H6.50635ZM11.509 3.67711L2.88185 3.67711L3.81505 11.4538C3.89949 12.1574 4.4964 12.687 5.20508 12.687H9.18579C9.89447 12.687 10.4914 12.1574 10.5758 11.4538L11.509 3.67711ZM5.49358 5.12711C5.82495 5.12711 6.09358 5.39574 6.09358 5.72711L6.09358 10.4466C6.09358 10.778 5.82495 11.0466 5.49358 11.0466C5.16221 11.0466 4.89358 10.778 4.89358 10.4466V5.72711C4.89358 5.39574 5.16221 5.12711 5.49358 5.12711ZM7.84358 5.72711C7.84358 5.39574 7.57495 5.12711 7.24358 5.12711C6.91221 5.12711 6.64358 5.39574 6.64358 5.72711L6.64358 10.4466C6.64358 10.778 6.91221 11.0466 7.24358 11.0466C7.57495 11.0466 7.84358 10.778 7.84358 10.4466V5.72711ZM9.59358 5.77061C9.59358 5.43924 9.32495 5.17061 8.99358 5.17061C8.66221 5.17061 8.39358 5.43924 8.39358 5.77061V10.4466C8.39358 10.778 8.66221 11.0466 8.99358 11.0466C9.32495 11.0466 9.59358 10.778 9.59358 10.4466V5.77061Z" fill="#FD5C5C"/>
</svg>
