<svg width="28" height="25" viewBox="0 0 28 25" fill="none" xmlns="http://www.w3.org/2000/svg">
<path fill-rule="evenodd" clip-rule="evenodd" d="M23.8553 5.97533C24.7574 5.97533 25.5794 6.38381 26.0536 7.06922C26.5279 7.75463 26.5706 8.59351 26.1674 9.31469L21.9335 16.8762C21.7139 17.2673 21.2667 17.5143 20.7769 17.5143H9.14572C8.56287 17.5143 8.0524 17.1658 7.8986 16.6638L4.2813 4.82145H2.68396C1.96929 4.82145 1.3916 4.3045 1.3916 3.66756C1.3916 3.03061 1.96929 2.51367 2.68396 2.51367H5.26866C5.85151 2.51367 6.36199 2.86214 6.51578 3.36408L7.31317 5.97533H23.8553ZM19.9782 15.2065H10.1331L8.0175 8.28311H23.8553L19.9782 15.2065ZM8.49955 23.2837C9.56962 23.2837 10.4381 22.5094 10.4381 21.5529C10.4381 20.5963 9.56962 19.822 8.49955 19.822C7.42948 19.822 6.56102 20.5963 6.56102 21.5529C6.56102 22.5094 7.42948 23.2837 8.49955 23.2837ZM21.423 23.2837C22.4932 23.2837 23.3616 22.5094 23.3616 21.5529C23.3616 20.5963 22.4932 19.822 21.423 19.822C20.353 19.822 19.4845 20.5963 19.4845 21.5529C19.4845 22.5094 20.353 23.2837 21.423 23.2837Z" fill="#00546F"/>
</svg>
