<svg fill="none" xmlns="http://www.w3.org/2000/svg" viewBox="0 0 21 21">
  <g clip-path="url(#a)">
    <path d="M16.818 7.838h-15a.833.833 0 0 0-.834.834v3.333a7.5 7.5 0 0 0 14.951.833h.883a2.5 2.5 0 0 0 0-5Zm-8.334 10a5.84 5.84 0 0 1-5.833-5.833v-2.5h11.667v2.5a5.84 5.84 0 0 1-5.834 5.833Zm7.5-6.666V9.505c.255.058 1.667-.305 1.667.833 0 1.102-1.455.786-1.667.834ZM2.895 5.582l1.042-1.041a2.017 2.017 0 0 1-.5-1.286 1.708 1.708 0 0 1 .5-1.214l.625-.625A.833.833 0 0 1 5.74 2.594l-.625.625c.314.356.492.812.504 1.286a1.707 1.707 0 0 1-.5 1.214L4.077 6.761a.834.834 0 1 1-1.182-1.178Zm4.167 0 1.042-1.041a2.017 2.017 0 0 1-.5-1.286 1.708 1.708 0 0 1 .5-1.214l.625-.625a.833.833 0 0 1 1.178 1.178l-.625.625c.314.356.492.812.503 1.286a1.708 1.708 0 0 1-.5 1.214L8.244 6.761a.834.834 0 1 1-1.182-1.178Zm4.167 0 1.041-1.041a2.017 2.017 0 0 1-.5-1.286 1.708 1.708 0 0 1 .5-1.214l.625-.625a.833.833 0 0 1 1.178 1.178l-.625.625c.314.356.493.812.504 1.286a1.708 1.708 0 0 1-.5 1.214L12.41 6.761a.833.833 0 0 1-1.178-1.178h-.003Z" fill="#00546F"/>
  </g>
  <defs>
    <clipPath id="a">
      <path fill="#fff" transform="translate(.15 .338)" d="M0 0h20v20H0z"/>
    </clipPath>
  </defs>
</svg>