<svg width="25" height="17" viewBox="0 0 25 17" fill="none" xmlns="http://www.w3.org/2000/svg">
<path fill-rule="evenodd" clip-rule="evenodd" d="M3.44619 0.149414C2.01025 0.149414 0.846191 1.31347 0.846191 2.74941V14.2494C0.846191 15.6854 2.01025 16.8494 3.44619 16.8494H22.3033C23.7393 16.8494 24.9033 15.6854 24.9033 14.2494V2.74941C24.9033 1.31347 23.7393 0.149414 22.3033 0.149414H3.44619ZM2.04619 2.74941C2.04619 1.97622 2.67299 1.34941 3.44619 1.34941H22.3033C23.0765 1.34941 23.7033 1.97622 23.7033 2.74941V5.04941H2.04619V2.74941ZM2.04619 6.24941V14.2494C2.04619 15.0226 2.67299 15.6494 3.44619 15.6494H22.3033C23.0765 15.6494 23.7033 15.0226 23.7033 14.2494V6.24941H2.04619Z" fill="#00546F"/>
<line x1="3.83193" y1="13.524" x2="12.2748" y2="13.524" stroke="#A0845F" stroke-width="1.2" stroke-linecap="round"/>
<line x1="3.83193" y1="10.899" x2="9.5367" y2="10.899" stroke="#A0845F" stroke-width="1.2" stroke-linecap="round"/>
</svg>
