<svg width="14" height="10" viewBox="0 0 14 10" fill="none" xmlns="http://www.w3.org/2000/svg">
<path fill-rule="evenodd" clip-rule="evenodd" d="M2.07524 4.49422V1.38701H10.3086V4.49422C10.3086 6.7678 8.46553 8.61091 6.19194 8.61091C3.91835 8.61091 2.07524 6.7678 2.07524 4.49422ZM0.875244 0.375715C0.875244 0.271497 0.95973 0.187012 1.06395 0.187012H10.3086H11.5086V0.187021L11.5413 0.187021L11.5775 0.187021C12.7084 0.187021 13.6252 1.10379 13.6252 2.23468C13.6252 2.80268 13.3892 3.34515 12.9738 3.73246L11.5413 5.06784L11.4706 5.13379C11.1547 7.76856 8.91182 9.81091 6.19194 9.81091C3.25561 9.81091 0.875244 7.43055 0.875244 4.49422V0.375715ZM12.1555 2.85471L11.5413 3.42728V1.38702H11.5775C12.0456 1.38702 12.4252 1.76653 12.4252 2.23468C12.4252 2.46981 12.3275 2.69438 12.1555 2.85471Z" fill="#00546F"/>
</svg>
