<svg width="16" height="16" viewBox="0 0 16 16" fill="none" xmlns="http://www.w3.org/2000/svg">
<g clip-path="url(#clip0_6925_31349)">
<path fill-rule="evenodd" clip-rule="evenodd" d="M5.30959 7.68459C5.35313 7.64093 5.40486 7.6063 5.46181 7.58267C5.51875 7.55904 5.57981 7.54688 5.64146 7.54688C5.70312 7.54688 5.76417 7.55904 5.82112 7.58267C5.87807 7.6063 5.92979 7.64093 5.97334 7.68459L8.45396 10.1662L10.9346 7.68459C10.9782 7.64101 11.0299 7.60643 11.0869 7.58285C11.1438 7.55926 11.2048 7.54712 11.2665 7.54712C11.3281 7.54712 11.3891 7.55926 11.4461 7.58285C11.503 7.60643 11.5548 7.64101 11.5983 7.68459C11.6419 7.72817 11.6765 7.77991 11.7001 7.83685C11.7237 7.8938 11.7358 7.95483 11.7358 8.01646C11.7358 8.0781 11.7237 8.13913 11.7001 8.19607C11.6765 8.25302 11.6419 8.30476 11.5983 8.34834L8.78584 11.1608C8.74229 11.2045 8.69057 11.2391 8.63362 11.2628C8.57667 11.2864 8.51562 11.2986 8.45396 11.2986C8.39231 11.2986 8.33125 11.2864 8.27431 11.2628C8.21736 11.2391 8.16563 11.2045 8.12209 11.1608L5.30959 8.34834C5.26593 8.3048 5.2313 8.25307 5.20767 8.19612C5.18404 8.13917 5.17188 8.07812 5.17188 8.01646C5.17188 7.95481 5.18404 7.89376 5.20767 7.83681C5.2313 7.77986 5.26593 7.72813 5.30959 7.68459Z" fill="white"/>
<path fill-rule="evenodd" clip-rule="evenodd" d="M8.4541 0.985352C8.57842 0.985352 8.69765 1.03474 8.78556 1.12265C8.87347 1.21055 8.92285 1.32978 8.92285 1.4541V9.8916C8.92285 10.0159 8.87347 10.1352 8.78556 10.2231C8.69765 10.311 8.57842 10.3604 8.4541 10.3604C8.32978 10.3604 8.21055 10.311 8.12265 10.2231C8.03474 10.1352 7.98535 10.0159 7.98535 9.8916V1.4541C7.98535 1.32978 8.03474 1.21055 8.12265 1.12265C8.21055 1.03474 8.32978 0.985352 8.4541 0.985352Z" fill="white"/>
<path fill-rule="evenodd" clip-rule="evenodd" d="M2.36035 12.7041C2.36035 13.0771 2.50851 13.4347 2.77223 13.6985C3.03596 13.9622 3.39364 14.1104 3.7666 14.1104H13.1416C13.5146 14.1104 13.8722 13.9622 14.136 13.6985C14.3997 13.4347 14.5479 13.0771 14.5479 12.7041V5.2041C14.5479 4.83114 14.3997 4.47346 14.136 4.20973C13.8722 3.94601 13.5146 3.79785 13.1416 3.79785H11.7354C11.611 3.79785 11.4918 3.84724 11.4039 3.93515C11.316 4.02305 11.2666 4.14228 11.2666 4.2666C11.2666 4.39092 11.316 4.51015 11.4039 4.59806C11.4918 4.68597 11.611 4.73535 11.7354 4.73535H13.1416C13.2659 4.73535 13.3852 4.78474 13.4731 4.87265C13.561 4.96055 13.6104 5.07978 13.6104 5.2041V12.7041C13.6104 12.8284 13.561 12.9477 13.4731 13.0356C13.3852 13.1235 13.2659 13.1729 13.1416 13.1729H3.7666C3.64228 13.1729 3.52305 13.1235 3.43515 13.0356C3.34724 12.9477 3.29785 12.8284 3.29785 12.7041V5.2041C3.29785 5.07978 3.34724 4.96055 3.43515 4.87265C3.52305 4.78474 3.64228 4.73535 3.7666 4.73535H5.17285C5.29717 4.73535 5.4164 4.68597 5.50431 4.59806C5.59222 4.51015 5.6416 4.39092 5.6416 4.2666C5.6416 4.14228 5.59222 4.02305 5.50431 3.93515C5.4164 3.84724 5.29717 3.79785 5.17285 3.79785H3.7666C3.39364 3.79785 3.03596 3.94601 2.77223 4.20973C2.50851 4.47346 2.36035 4.83114 2.36035 5.2041V12.7041Z" fill="white"/>
</g>
<defs>
<clipPath id="clip0_6925_31349">
<rect width="15" height="15" fill="white" transform="translate(0.954102 0.0478516)"/>
</clipPath>
</defs>
</svg>
