<svg width="49" height="49" viewBox="0 0 49 49" fill="none" xmlns="http://www.w3.org/2000/svg">
<path d="M48.75 24.1069C48.75 10.8507 38.0062 0.106934 24.75 0.106934C11.4938 0.106934 0.75 10.8507 0.75 24.1069C0.75 36.0882 9.525 46.0163 21 47.8163V31.0444H14.9062V24.1069H21V18.8194C21 12.8053 24.5813 9.48193 30.0656 9.48193C32.6906 9.48193 35.4375 9.95068 35.4375 9.95068V15.8569H32.4094C29.4281 15.8569 28.5 17.7085 28.5 19.6069V24.1069H35.1562L34.0922 31.0444H28.5V47.8163C39.975 46.0163 48.75 36.0882 48.75 24.1069Z" fill="#1877F2"/>
<path d="M34.0923 31.0444L35.1562 24.1069H28.5V19.6069C28.5 17.7085 29.4282 15.8569 32.4095 15.8569H35.4375V9.95068C35.4375 9.95068 32.6907 9.48193 30.0656 9.48193C24.5814 9.48193 21.0001 12.8053 21.0001 18.8194V24.1069H14.9062V31.0444H21.0001V47.8163C22.2235 48.0085 23.475 48.1069 24.75 48.1069C26.025 48.1069 27.2766 48.0085 28.5 47.8163V31.0444H34.0923Z" fill="white"/>
</svg>
