<svg width="33" height="32" viewBox="0 0 33 32" fill="none" xmlns="http://www.w3.org/2000/svg">
<circle cx="16.29" cy="16" r="16" fill="#1F9974"/>
<path fill-rule="evenodd" clip-rule="evenodd" d="M19.9362 13.4701C19.7102 13.2204 19.5732 12.8938 19.5732 12.5365C19.5732 11.7515 20.2338 11.1152 21.0487 11.1152C21.6287 11.1152 22.1304 11.4375 22.3716 11.9062C22.6128 11.4375 23.1145 11.1152 23.6945 11.1152C24.5094 11.1152 25.17 11.7515 25.17 12.5365C25.17 12.8934 25.0334 13.2196 24.8078 13.4692L23.1578 15.5682C22.7575 16.0776 21.9859 16.0776 21.5855 15.5682L19.9362 13.4701Z" fill="white"/>
<path fill-rule="evenodd" clip-rule="evenodd" d="M7.77316 13.4701C7.54708 13.2204 7.41016 12.8938 7.41016 12.5365C7.41016 11.7515 8.07076 11.1152 8.88566 11.1152C9.46558 11.1152 9.96735 11.4375 10.2085 11.9062C10.4497 11.4375 10.9515 11.1152 11.5314 11.1152C12.3463 11.1152 13.0069 11.7515 13.0069 12.5365C13.0069 12.8934 12.8703 13.2196 12.6447 13.4692L10.9948 15.5682C10.5944 16.0776 9.82277 16.0776 9.42239 15.5682L7.77316 13.4701Z" fill="white"/>
<path d="M19.5732 19.8145C19.5732 21.9463 18.1033 23.6745 16.29 23.6745C14.4768 23.6745 13.0068 21.9463 13.0068 19.8145" stroke="white" stroke-width="2" stroke-linecap="round" stroke-linejoin="round"/>
</svg>
