<svg xmlns:xlink="http://www.w3.org/1999/xlink" xmlns="http://www.w3.org/2000/svg" class="svg-icon " width="32" height="32"><defs><symbol id="icon-filters" viewBox="0 0 31 32"><path fill="#00546F" style="" d="M12.439 9.127c-0.2-0.567-0.571-1.059-1.063-1.406s-1.078-0.534-1.68-0.534c-0.602 0-1.188 0.187-1.68 0.534s-0.862 0.839-1.063 1.406h-3.076v1.94h3.076c0.2 0.567 0.572 1.059 1.063 1.406s1.078 0.534 1.68 0.534 1.188-0.187 1.68-0.534c0.491-0.348 0.862-0.839 1.063-1.406h14.712v-1.94h-14.712zM9.697 11.067c-0.192 0-0.379-0.057-0.539-0.163s-0.284-0.258-0.357-0.435c-0.073-0.177-0.093-0.372-0.055-0.56s0.13-0.361 0.265-0.497 0.308-0.228 0.497-0.265c0.188-0.037 0.383-0.018 0.56 0.055s0.329 0.198 0.435 0.357c0.107 0.159 0.164 0.347 0.164 0.539 0 0.257-0.102 0.504-0.284 0.686s-0.428 0.284-0.686 0.284z"></path><path fill="#00546F" style="" d="M24.075 14.945c-0.201-0.567-0.572-1.058-1.063-1.405s-1.078-0.534-1.679-0.534-1.188 0.186-1.679 0.534c-0.491 0.347-0.862 0.838-1.063 1.405h-14.712v1.94h14.712c0.2 0.567 0.571 1.059 1.063 1.406s1.078 0.534 1.68 0.534c0.602 0 1.188-0.187 1.68-0.534s0.862-0.839 1.063-1.406h3.076v-1.94h-3.076zM21.333 16.884c-0.192 0-0.379-0.057-0.539-0.163s-0.284-0.258-0.357-0.435-0.093-0.372-0.055-0.56c0.037-0.188 0.13-0.361 0.265-0.496s0.308-0.228 0.497-0.265 0.383-0.018 0.56 0.055c0.177 0.073 0.329 0.198 0.435 0.357s0.163 0.347 0.163 0.539c0 0.257-0.102 0.504-0.284 0.686s-0.428 0.284-0.686 0.284z"></path><path fill="#00546F" style="" d="M12.439 20.763c-0.2-0.567-0.571-1.059-1.063-1.406s-1.078-0.534-1.68-0.534-1.188 0.187-1.68 0.534c-0.491 0.347-0.862 0.839-1.063 1.406h-3.076v1.943h3.076c0.201 0.567 0.572 1.058 1.063 1.405s1.078 0.534 1.679 0.534 1.188-0.186 1.679-0.534c0.491-0.347 0.862-0.838 1.063-1.405h14.712v-1.943h-14.712zM9.697 22.706c-0.192 0-0.379-0.057-0.539-0.163s-0.284-0.258-0.357-0.435c-0.073-0.177-0.093-0.372-0.055-0.56s0.13-0.361 0.265-0.497c0.136-0.136 0.308-0.228 0.497-0.265s0.383-0.018 0.56 0.055c0.177 0.073 0.329 0.198 0.435 0.357s0.164 0.347 0.164 0.539c0 0.257-0.102 0.504-0.284 0.686s-0.428 0.284-0.686 0.284z"></path></symbol></defs><use class="use-undefined" href="#icon-filters" x="0" y="0"></use></svg>