<svg width="25" height="27" viewBox="0 -2 25 25" fill="none" xmlns="http://www.w3.org/2000/svg">
<path d="M2.73364 4.89844C2.73364 4.63322 2.839 4.37887 3.02654 4.19133C3.21407 4.00379 3.46843 3.89844 3.73364 3.89844H21.7336C21.9989 3.89844 22.2532 4.00379 22.4408 4.19133C22.6283 4.37887 22.7336 4.63322 22.7336 4.89844C22.7336 5.16365 22.6283 5.41801 22.4408 5.60554C22.2532 5.79308 21.9989 5.89844 21.7336 5.89844H3.73364C3.46843 5.89844 3.21407 5.79308 3.02654 5.60554C2.839 5.41801 2.73364 5.16365 2.73364 4.89844ZM3.73364 13.8984H21.7336C21.9989 13.8984 22.2532 13.7931 22.4408 13.6055C22.6283 13.418 22.7336 13.1637 22.7336 12.8984C22.7336 12.6332 22.6283 12.3789 22.4408 12.1913C22.2532 12.0038 21.9989 11.8984 21.7336 11.8984H3.73364C3.46843 11.8984 3.21407 12.0038 3.02654 12.1913C2.839 12.3789 2.73364 12.6332 2.73364 12.8984C2.73364 13.1637 2.839 13.418 3.02654 13.6055C3.21407 13.7931 3.46843 13.8984 3.73364 13.8984ZM3.73364 21.8984H21.7336C21.9989 21.8984 22.2532 21.7931 22.4408 21.6055C22.6283 21.418 22.7336 21.1637 22.7336 20.8984C22.7336 20.6332 22.6283 20.3789 22.4408 20.1913C22.2532 20.0038 21.9989 19.8984 21.7336 19.8984H3.73364C3.46843 19.8984 3.21407 20.0038 3.02654 20.1913C2.839 20.3789 2.73364 20.6332 2.73364 20.8984C2.73364 21.1637 2.839 21.418 3.02654 21.6055C3.21407 21.7931 3.46843 21.8984 3.73364 21.8984Z" fill="#00546F"/>
</svg>
