<svg width="25" height="25" viewBox="0 0 25 25" fill="none" xmlns="http://www.w3.org/2000/svg">
<g clip-path="url(#clip0_1_408)">
<path d="M2.73438 4.89844C2.73438 4.63322 2.88188 4.37887 3.14444 4.19133C3.40698 4.00379 3.76308 3.89844 4.13438 3.89844H29.3344C29.7058 3.89844 30.0618 4.00379 30.3245 4.19133C30.587 4.37887 30.7344 4.63322 30.7344 4.89844C30.7344 5.16365 30.587 5.41801 30.3245 5.60554C30.0618 5.79308 29.7058 5.89844 29.3344 5.89844H4.13438C3.76308 5.89844 3.40698 5.79308 3.14444 5.60554C2.88188 5.41801 2.73438 5.16365 2.73438 4.89844ZM4.13438 13.8984H29.3344C29.7058 13.8984 30.0618 13.7931 30.3245 13.6055C30.587 13.418 30.7344 13.1637 30.7344 12.8984C30.7344 12.6332 30.587 12.3789 30.3245 12.1913C30.0618 12.0038 29.7058 11.8984 29.3344 11.8984H4.13438C3.76308 11.8984 3.40698 12.0038 3.14444 12.1913C2.88188 12.3789 2.73438 12.6332 2.73438 12.8984C2.73438 13.1637 2.88188 13.418 3.14444 13.6055C3.40698 13.7931 3.76308 13.8984 4.13438 13.8984ZM4.13438 21.8984H29.3344C29.7058 21.8984 30.0618 21.7931 30.3245 21.6055C30.587 21.418 30.7344 21.1637 30.7344 20.8984C30.7344 20.6332 30.587 20.3789 30.3245 20.1913C30.0618 20.0038 29.7058 19.8984 29.3344 19.8984H4.13438C3.76308 19.8984 3.40698 20.0038 3.14444 20.1913C2.88188 20.3789 2.73438 20.6332 2.73438 20.8984C2.73438 21.1637 2.88188 21.418 3.14444 21.6055C3.40698 21.7931 3.76308 21.8984 4.13438 21.8984Z" fill="#00546F"/>
</g>
<defs>
<clipPath id="clip0_1_408">
<rect width="25" height="25" fill="white"/>
</clipPath>
</defs>
</svg>
