<svg width="15" height="15" viewBox="0 0 15 15" fill="none" xmlns="http://www.w3.org/2000/svg">
<path d="M7.5 0C3.36437 0 0 3.36454 0 7.5C0 11.6355 3.36437 15 7.5 15C11.6356 15 15 11.6355 15 7.5C15 3.36454 11.6356 0 7.5 0ZM8.47825 11.413C8.47825 11.9533 8.04029 12.3913 7.5 12.3913C6.95971 12.3913 6.52175 11.9533 6.52175 11.413V6.52175C6.52175 5.98145 6.95971 5.5435 7.5 5.5435C8.04029 5.5435 8.47825 5.98145 8.47825 6.52175V11.413ZM7.5 4.56522C6.95971 4.56522 6.52175 4.12726 6.52175 3.58696C6.52175 3.04667 6.95971 2.60871 7.5 2.60871C8.04029 2.60871 8.47825 3.04667 8.47825 3.58696C8.47825 4.12726 8.04029 4.56522 7.5 4.56522Z" fill="#A0845F"/>
</svg>
