<svg width="49" height="49" viewBox="0 0 49 49" fill="none" xmlns="http://www.w3.org/2000/svg">
<circle cx="24.75" cy="24.1069" r="24" fill="url(#paint0_linear_1047_20175)"/>
<path d="M31.217 8.10693H18.283C13.0265 8.10693 8.75 12.3834 8.75 17.6399V30.574C8.75 35.8305 13.0265 40.1069 18.283 40.1069H31.217C36.4735 40.1069 40.75 35.8305 40.75 30.574V17.6399C40.7499 12.3834 36.4735 8.10693 31.217 8.10693ZM37.5308 30.574C37.5308 34.0609 34.704 36.8877 31.217 36.8877H18.283C14.796 36.8877 11.9692 34.0609 11.9692 30.574V17.6399C11.9692 14.1529 14.796 11.3261 18.283 11.3261H31.217C34.704 11.3261 37.5308 14.1529 37.5308 17.6399V30.574Z" fill="white"/>
<path d="M24.75 15.8306C20.1864 15.8306 16.4736 19.5433 16.4736 24.1068C16.4736 28.6704 20.1864 32.3832 24.75 32.3832C29.3136 32.3832 33.0263 28.6704 33.0263 24.1068C33.0263 19.5433 29.3136 15.8306 24.75 15.8306ZM24.75 29.164C21.957 29.164 19.6928 26.8999 19.6928 24.1069C19.6928 21.3139 21.957 19.0498 24.75 19.0498C27.543 19.0498 29.8071 21.3139 29.8071 24.1069C29.8071 26.8998 27.5429 29.164 24.75 29.164Z" fill="white"/>
<path d="M33.0423 17.876C34.1375 17.876 35.0254 16.9881 35.0254 15.8928C35.0254 14.7976 34.1375 13.9097 33.0423 13.9097C31.947 13.9097 31.0591 14.7976 31.0591 15.8928C31.0591 16.9881 31.947 17.876 33.0423 17.876Z" fill="white"/>
<defs>
<linearGradient id="paint0_linear_1047_20175" x1="24.75" y1="48.1069" x2="24.75" y2="0.106934" gradientUnits="userSpaceOnUse">
<stop offset="0.140625" stop-color="#E09B3D"/>
<stop offset="0.505208" stop-color="#C21975"/>
<stop offset="1" stop-color="#7024C4"/>
</linearGradient>
</defs>
</svg>
