<svg width="17" height="17" viewBox="0 0 17 17" fill="none" xmlns="http://www.w3.org/2000/svg">
<g clip-path="url(#clip0_1_373)">
<path d="M10.625 0C10.0373 0 9.5625 0.474805 9.5625 1.0625C9.5625 1.6502 10.0373 2.125 10.625 2.125H13.3709L6.68711 8.81211C6.27207 9.22715 6.27207 9.90117 6.68711 10.3162C7.10215 10.7313 7.77617 10.7313 8.19121 10.3162L14.875 3.6291V6.375C14.875 6.9627 15.3498 7.4375 15.9375 7.4375C16.5252 7.4375 17 6.9627 17 6.375V1.0625C17 0.474805 16.5252 0 15.9375 0H10.625ZM2.65625 1.0625C1.18867 1.0625 0 2.25117 0 3.71875V14.3438C0 15.8113 1.18867 17 2.65625 17H13.2812C14.7488 17 15.9375 15.8113 15.9375 14.3438V10.625C15.9375 10.0373 15.4627 9.5625 14.875 9.5625C14.2873 9.5625 13.8125 10.0373 13.8125 10.625V14.3438C13.8125 14.6359 13.5734 14.875 13.2812 14.875H2.65625C2.36406 14.875 2.125 14.6359 2.125 14.3438V3.71875C2.125 3.42656 2.36406 3.1875 2.65625 3.1875H6.375C6.9627 3.1875 7.4375 2.7127 7.4375 2.125C7.4375 1.5373 6.9627 1.0625 6.375 1.0625H2.65625Z" fill="white"/>
</g>
<defs>
<clipPath id="clip0_1_373">
<rect width="17" height="17" fill="white"/>
</clipPath>
</defs>
</svg>
