<svg  width="43" height="43" viewBox="0 0 51 51" fill="none" xmlns="http://www.w3.org/2000/svg">
<path d="M18.2021 34.7369C18.786 34.8302 19.3764 34.8773 19.9677 34.8776C21.7043 34.8794 23.4176 34.4791 24.9728 33.7083C24.9436 33.9644 24.929 34.222 24.929 34.4797C24.9313 36.1191 25.4607 37.7146 26.4396 39.0315C27.4184 40.3485 28.795 41.3175 30.3669 41.7961L22.7694 49.3842H25.8142L33.0664 42.1406C34.4418 42.2584 35.723 42.8864 36.6568 43.9005C37.5907 44.9146 38.1093 46.2412 38.1104 47.6182V49.3794H40.2797V47.6231C40.275 46.0013 39.7544 44.4228 38.7929 43.115C37.8314 41.8072 36.4786 40.8374 34.9293 40.3455L38.1396 37.1433C39.0011 36.2866 39.7115 35.2909 40.2408 34.1983C41.0783 34.2454 41.8659 34.6105 42.4421 35.2186C43.0183 35.8267 43.3392 36.6317 43.3391 37.4684H45.489C45.4859 36.1944 45.0342 34.962 44.2127 33.9865C43.3912 33.011 42.2522 32.3544 40.9947 32.1315C41.4464 30.3169 41.421 28.4167 40.9208 26.6148C40.4206 24.8129 39.4626 23.1703 38.1396 21.8458L37.9693 21.676L41.7389 17.882C42.872 16.7495 43.5084 15.2149 43.5084 13.6149C43.5084 12.0149 42.872 10.4803 41.7389 9.34781C40.6142 8.26471 39.1319 7.62817 37.5701 7.55761C36.0083 7.48704 34.4744 7.98729 33.2561 8.96452L33.2172 8.99363L15.9598 26.2027L12.9344 29.1962C11.9755 27.6904 11.5591 25.9039 11.7536 24.1306C11.9481 22.3573 12.7419 20.7028 14.0045 19.4394L22.4775 10.9877C22.586 10.8791 22.7148 10.793 22.8567 10.7342C22.9986 10.6755 23.1508 10.6452 23.3044 10.6452C23.458 10.6452 23.6102 10.6755 23.7521 10.7342C23.894 10.793 24.0228 10.8791 24.1313 10.9877L24.4864 11.3419H27.5263L25.6488 9.4691C25.1068 8.92911 24.3942 8.5926 23.6319 8.51656C22.8696 8.44052 22.1044 8.62962 21.4658 9.05185L16.8499 4.44757C15.5429 3.14456 13.7706 2.4126 11.9227 2.4126C10.0748 2.4126 8.3025 3.14456 6.99547 4.44757L6.23183 5.20443L12.3653 11.3419H15.4102L9.33991 5.26751C10.2645 4.69256 11.3567 4.44631 12.4393 4.56874C13.5218 4.69116 14.5311 5.17509 15.3032 5.9419L19.8753 10.5025L12.4577 17.9208C10.7921 19.5861 9.76869 21.784 9.56762 24.1277C9.36655 26.4715 10.0007 28.8109 11.3585 30.7342L11.2709 30.8215L7.83208 34.2517C6.59851 35.4865 5.80675 37.092 5.57907 38.8203C5.35138 40.5487 5.70042 42.3037 6.5723 43.8144H9.24263C8.20973 42.722 7.64378 41.2713 7.66466 39.7698C7.68554 38.2682 8.29162 36.8338 9.3545 35.7703L12.7593 32.3741L17.7741 37.3811C18.6553 38.2608 19.1503 39.4536 19.1503 40.6972C19.1503 41.9409 18.6553 43.1336 17.7741 44.0134L12.4188 49.3842H15.4734L19.3354 45.5029C20.6176 44.2189 21.3376 42.4804 21.3376 40.6681C21.3376 38.8558 20.6176 37.1173 19.3354 35.8334L18.2021 34.7369ZM39.1172 29.4728C39.1204 30.6131 38.8968 31.7427 38.4593 32.7962C38.0218 33.8497 37.3791 34.8061 36.5685 35.6102L32.1909 39.9767C30.8003 39.8798 29.4982 39.2607 28.5469 38.2443C27.5956 37.2279 27.0658 35.8896 27.0643 34.4991C27.0698 33.2558 27.5358 32.0583 28.3727 31.1369L28.8007 30.7099L36.3885 23.1655L36.5636 23.3402C37.3739 24.1435 38.0164 25.0991 38.4538 26.1518C38.8913 27.2045 39.1152 28.3332 39.1124 29.4728H39.1172ZM14.3595 30.7876L17.2487 27.9251L17.4482 27.7261L18.6836 26.5035L34.6521 10.5801C35.4546 9.94916 36.4594 9.62993 37.4799 9.68168C38.5005 9.73343 39.4676 10.1526 40.2019 10.8615C40.5651 11.2222 40.8534 11.6509 41.0501 12.123C41.2467 12.595 41.348 13.1012 41.348 13.6125C41.348 14.1237 41.2467 14.6299 41.0501 15.102C40.8534 15.5741 40.5651 16.0027 40.2019 16.3634L35.6541 20.8949L27.0545 29.4048C26.9573 29.5019 26.86 29.6038 26.7676 29.7056L26.393 30.0841C25.5519 30.9262 24.5519 31.5938 23.4508 32.0485C22.3497 32.5031 21.1692 32.7358 19.9774 32.7331C17.9413 32.7407 15.9633 32.0562 14.3693 30.7924" fill="#00546F"/>
</svg>
