<svg width="25" height="25" viewBox="0 0 25 25" fill="none" xmlns="http://www.w3.org/2000/svg">
<path fill-rule="evenodd" clip-rule="evenodd" d="M21.2991 5.97518C22.1045 5.97518 22.8384 6.38366 23.2618 7.06907C23.6853 7.75448 23.7234 8.59336 23.3634 9.31454L19.5832 16.876C19.3871 17.2671 18.9878 17.5141 18.5505 17.5141H8.16551C7.64511 17.5141 7.18933 17.1656 7.05201 16.6636L3.82228 4.8213H2.39608C1.75798 4.8213 1.24219 4.30435 1.24219 3.66741C1.24219 3.03046 1.75798 2.51352 2.39608 2.51352H4.70385C5.22425 2.51352 5.68004 2.86199 5.81735 3.36393L6.5293 5.97518H21.2991ZM17.8374 15.2063H9.04709L7.15817 8.28296H21.2991L17.8374 15.2063ZM7.58857 23.2835C8.54399 23.2835 9.3194 22.5092 9.3194 21.5527C9.3194 20.5961 8.54399 19.8218 7.58857 19.8218C6.63315 19.8218 5.85774 20.5961 5.85774 21.5527C5.85774 22.5092 6.63315 23.2835 7.58857 23.2835ZM19.1274 23.2835C20.0829 23.2835 20.8583 22.5092 20.8583 21.5527C20.8583 20.5961 20.0829 19.8218 19.1274 19.8218C18.172 19.8218 17.3966 20.5961 17.3966 21.5527C17.3966 22.5092 18.172 23.2835 19.1274 23.2835Z" fill="#00546F"/>
</svg>
