<svg width="49" height="27" viewBox="0 0 49 27" fill="none" xmlns="http://www.w3.org/2000/svg">
<g clip-path="url(#clip0_103_62)">
<path d="M13.551 8.5C13.551 7.83696 13.8316 7.20107 14.3311 6.73223C14.8305 6.26339 15.5079 6 16.2143 6H32.1939C32.9002 6 33.5776 6.26339 34.0771 6.73223C34.5766 7.20107 34.8571 7.83696 34.8571 8.5V18.5C34.8571 19.163 34.5766 19.7989 34.0771 20.2678C33.5776 20.7366 32.9002 21 32.1939 21H16.2143C15.5079 21 14.8305 20.7366 14.3311 20.2678C13.8316 19.7989 13.551 19.163 13.551 18.5V8.5ZM16.2143 7.25C15.8611 7.25 15.5224 7.3817 15.2727 7.61612C15.023 7.85054 14.8827 8.16848 14.8827 8.5V9.75H33.5255V8.5C33.5255 8.16848 33.3852 7.85054 33.1355 7.61612C32.8858 7.3817 32.5471 7.25 32.1939 7.25H16.2143ZM33.5255 12.25H14.8827V18.5C14.8827 18.8315 15.023 19.1495 15.2727 19.3839C15.5224 19.6183 15.8611 19.75 16.2143 19.75H32.1939C32.5471 19.75 32.8858 19.6183 33.1355 19.3839C33.3852 19.1495 33.5255 18.8315 33.5255 18.5V12.25Z" fill="#9A97A4"/>
<path d="M16.2144 16C16.2144 15.6685 16.3547 15.3505 16.6044 15.1161C16.8541 14.8817 17.1928 14.75 17.546 14.75H18.8776C19.2308 14.75 19.5695 14.8817 19.8192 15.1161C20.069 15.3505 20.2093 15.6685 20.2093 16V17.25C20.2093 17.5815 20.069 17.8995 19.8192 18.1339C19.5695 18.3683 19.2308 18.5 18.8776 18.5H17.546C17.1928 18.5 16.8541 18.3683 16.6044 18.1339C16.3547 17.8995 16.2144 17.5815 16.2144 17.25V16Z" fill="#9A97A4"/>
</g>
<rect x="0.5" y="0.5" width="48" height="26" rx="3.5" stroke="#E2E0DB"/>
<defs>
<clipPath id="clip0_103_62">
<rect width="29" height="15" fill="white" transform="translate(10 6)"/>
</clipPath>
</defs>
</svg>
