<svg width="14" height="14" viewBox="0 0 14 14" fill="none" xmlns="http://www.w3.org/2000/svg">
<path d="M2.25971 6.81101L6.66551 6.81101L6.66551 2.40522C6.66551 2.25916 6.72353 2.11908 6.82681 2.0158C6.93009 1.91251 7.07017 1.85449 7.21623 1.85449C7.36229 1.85449 7.50237 1.91251 7.60565 2.0158C7.70893 2.11908 7.76696 2.25916 7.76696 2.40522L7.76696 6.81101L12.1728 6.81101C12.3188 6.81101 12.4589 6.86904 12.5622 6.97232C12.6655 7.0756 12.7235 7.21568 12.7235 7.36174C12.7235 7.5078 12.6655 7.64788 12.5622 7.75116C12.4589 7.85444 12.3188 7.91246 12.1728 7.91246L7.76696 7.91246L7.76696 12.3183C7.76696 12.4643 7.70893 12.6044 7.60565 12.7077C7.50237 12.811 7.36229 12.869 7.21623 12.869C7.07017 12.869 6.93009 12.811 6.82681 12.7077C6.72353 12.6044 6.66551 12.4643 6.66551 12.3183L6.66551 7.91246L2.25971 7.91246C2.11365 7.91246 1.97357 7.85444 1.87029 7.75116C1.76701 7.64788 1.70898 7.5078 1.70898 7.36174C1.70898 7.21568 1.76701 7.0756 1.87029 6.97232C1.97357 6.86904 2.11365 6.81101 2.25971 6.81101V6.81101Z" fill="#00546F"/>
</svg>
