<svg xmlns="http://www.w3.org/2000/svg" width="24" height="24" viewBox="0 0 30 30" version="1.1"><path d="" stroke="none" fill="#08546c" fill-rule="evenodd"/><path d="M 5.923 5.923 C -0.296 12.142, 3.879 23, 12.489 23 C 14.492 23, 16.936 22.569, 17.920 22.043 C 19.317 21.295, 20.327 21.732, 22.541 24.043 C 25.605 27.241, 27 27.756, 27 25.688 C 27 24.966, 25.644 23.373, 23.986 22.148 C 21.512 20.319, 21.154 19.581, 21.986 18.026 C 25.581 11.310, 20.611 3, 13 3 C 9.742 3, 8.216 3.631, 5.923 5.923 M 10.465 5.961 C 2.848 9.014, 4.844 20.333, 13 20.333 C 17.052 20.333, 20.333 17.052, 20.333 13 C 20.333 7.989, 14.963 4.158, 10.465 5.961" stroke="none" fill="#04546c" fill-rule="evenodd"/></svg>