<svg width="33" height="32" viewBox="0 0 33 32" fill="none" xmlns="http://www.w3.org/2000/svg">
<rect x="0.5" y="0.5" width="31.8" height="31" rx="15.5" fill="#F2F0EC"/>
<rect x="0.5" y="0.5" width="31.8" height="31" rx="15.5" stroke="#F2F0EC"/>
<g clip-path="url(#clip0_1403_13018)">
<path d="M20.2 18.5363C19.7186 18.5363 19.288 18.7263 18.9586 19.0239L14.443 16.3956C14.4746 16.2499 14.5 16.1043 14.5 15.9523C14.5 15.8003 14.4746 15.6546 14.443 15.5089L18.908 12.9059C19.25 13.2226 19.6996 13.4189 20.2 13.4189C21.2513 13.4189 22.1 12.5703 22.1 11.5189C22.1 10.4676 21.2513 9.61893 20.2 9.61893C19.1486 9.61893 18.3 10.4676 18.3 11.5189C18.3 11.6709 18.3253 11.8166 18.357 11.9623L13.892 14.5653C13.55 14.2486 13.1003 14.0523 12.6 14.0523C11.5486 14.0523 10.7 14.9009 10.7 15.9523C10.7 17.0036 11.5486 17.8523 12.6 17.8523C13.1003 17.8523 13.55 17.6559 13.892 17.3393L18.4013 19.9739C18.3696 20.1069 18.3506 20.2463 18.3506 20.3856C18.3506 21.4053 19.1803 22.2349 20.2 22.2349C21.2196 22.2349 22.0493 21.4053 22.0493 20.3856C22.0493 19.3659 21.2196 18.5363 20.2 18.5363ZM20.2 10.8856C20.5483 10.8856 20.8333 11.1706 20.8333 11.5189C20.8333 11.8673 20.5483 12.1523 20.2 12.1523C19.8516 12.1523 19.5666 11.8673 19.5666 11.5189C19.5666 11.1706 19.8516 10.8856 20.2 10.8856ZM12.6 16.5856C12.2516 16.5856 11.9666 16.3006 11.9666 15.9523C11.9666 15.6039 12.2516 15.3189 12.6 15.3189C12.9483 15.3189 13.2333 15.6039 13.2333 15.9523C13.2333 16.3006 12.9483 16.5856 12.6 16.5856ZM20.2 21.0316C19.8516 21.0316 19.5666 20.7466 19.5666 20.3983C19.5666 20.0499 19.8516 19.7649 20.2 19.7649C20.5483 19.7649 20.8333 20.0499 20.8333 20.3983C20.8333 20.7466 20.5483 21.0316 20.2 21.0316Z" fill="#00546F"/>
</g>
<defs>
<clipPath id="clip0_1403_13018">
<rect width="15.2" height="15.2" fill="white" transform="translate(8.80005 8.35226)"/>
</clipPath>
</defs>
</svg>
