<svg width="28" height="25" viewBox="0 0 28 25" fill="none" xmlns="http://www.w3.org/2000/svg">
<path d="M14.2616 11.8984C15.3692 11.8984 16.4519 11.6052 17.3728 11.0558C18.2937 10.5064 19.0115 9.72549 19.4353 8.81186C19.8592 7.89823 19.9701 6.89289 19.7541 5.92299C19.5379 4.95308 19.0046 4.06217 18.2215 3.36291C17.4383 2.66364 16.4404 2.18744 15.3542 1.99451C14.2679 1.80159 13.1419 1.9006 12.1186 2.27904C11.0954 2.65748 10.2207 3.29834 9.60541 4.12059C8.99008 4.94283 8.66164 5.90953 8.66164 6.89844C8.66342 8.22403 9.25399 9.49488 10.3038 10.4322C11.3536 11.3696 12.7769 11.8969 14.2616 11.8984ZM14.2616 3.89844C14.9262 3.89844 15.5758 4.07439 16.1284 4.40403C16.6809 4.73368 17.1115 5.20221 17.3659 5.75039C17.6201 6.29857 17.6868 6.90177 17.5571 7.48371C17.4274 8.06565 17.1074 8.6002 16.6376 9.01976C16.1676 9.43932 15.569 9.72504 14.9171 9.8408C14.2654 9.95655 13.5898 9.89714 12.9758 9.67008C12.3619 9.44302 11.8371 9.0585 11.4679 8.56515C11.0987 8.0718 10.9016 7.49178 10.9016 6.89844C10.9016 6.10279 11.2556 5.33973 11.8857 4.77712C12.5159 4.21451 13.3705 3.89844 14.2616 3.89844ZM5.30164 23.8984H23.2216C23.5187 23.8984 23.8035 23.7931 24.0137 23.6055C24.2237 23.418 24.3416 23.1637 24.3416 22.8984C24.3416 20.5115 23.2796 18.2223 21.3893 16.5345C19.4989 14.8467 16.935 13.8984 14.2616 13.8984C11.5883 13.8984 9.02437 14.8467 7.13401 16.5345C5.24364 18.2223 4.18164 20.5115 4.18164 22.8984C4.18164 23.1637 4.29964 23.418 4.50969 23.6055C4.71972 23.7931 5.00461 23.8984 5.30164 23.8984ZM14.2616 15.8984C16.1463 15.9005 17.9673 16.5078 19.3921 17.6094C20.8168 18.7109 21.7504 20.2333 22.0221 21.8984H6.50116C6.77294 20.2333 7.70644 18.7109 9.1312 17.6094C10.556 16.5078 12.377 15.9005 14.2616 15.8984Z" fill="#00546F"/>
</svg>
