<svg width="25" height="27" viewBox="0 -2 25 25" fill="none" xmlns="http://www.w3.org/2000/svg">
<path d="M12.7336 11.8984C13.7225 11.8984 14.6892 11.6052 15.5115 11.0558C16.3337 10.5064 16.9746 9.72549 17.353 8.81186C17.7315 7.89823 17.8305 6.89289 17.6376 5.92299C17.4446 4.95308 16.9684 4.06217 16.2692 3.36291C15.5699 2.66364 14.679 2.18744 13.7091 1.99451C12.7392 1.80159 11.7339 1.9006 10.8202 2.27904C9.9066 2.65748 9.1257 3.29834 8.57629 4.12059C8.02689 4.94283 7.73364 5.90953 7.73364 6.89844C7.73523 8.22403 8.26252 9.49488 9.19986 10.4322C10.1372 11.3696 11.408 11.8969 12.7336 11.8984ZM12.7336 3.89844C13.327 3.89844 13.907 4.07439 14.4004 4.40403C14.8937 4.73368 15.2782 5.20221 15.5053 5.75039C15.7323 6.29857 15.7918 6.90177 15.676 7.48371C15.5602 8.06565 15.2745 8.6002 14.855 9.01976C14.4354 9.43932 13.9009 9.72504 13.3189 9.8408C12.737 9.95655 12.1338 9.89714 11.5856 9.67008C11.0374 9.44302 10.5689 9.0585 10.2392 8.56515C9.90959 8.0718 9.73364 7.49178 9.73364 6.89844C9.73364 6.10279 10.0497 5.33973 10.6123 4.77712C11.1749 4.21451 11.938 3.89844 12.7336 3.89844ZM4.73364 23.8984H20.7336C20.9989 23.8984 21.2532 23.7931 21.4408 23.6055C21.6283 23.418 21.7336 23.1637 21.7336 22.8984C21.7336 20.5115 20.7854 18.2223 19.0976 16.5345C17.4098 14.8467 15.1206 13.8984 12.7336 13.8984C10.3467 13.8984 8.05751 14.8467 6.36968 16.5345C4.68185 18.2223 3.73364 20.5115 3.73364 22.8984C3.73364 23.1637 3.839 23.418 4.02654 23.6055C4.21407 23.7931 4.46843 23.8984 4.73364 23.8984ZM12.7336 15.8984C14.4164 15.9005 16.0423 16.5078 17.3144 17.6094C18.5865 18.7109 19.42 20.2333 19.6626 21.8984H5.80464C6.0473 20.2333 6.88078 18.7109 8.15289 17.6094C9.425 16.5078 11.0509 15.9005 12.7336 15.8984Z" fill="#00546F"/>
</svg>
