<svg width="49" height="27" viewBox="0 0 49 27" fill="none" xmlns="http://www.w3.org/2000/svg">
<path d="M20.5108 8.19713L16.1966 18.8376H13.382L11.2661 10.3451C11.138 9.82308 11.0266 9.63068 10.6346 9.41147C9.98622 9.0519 8.92904 8.71441 8 8.51254L8.06255 8.19713H12.5933C12.8896 8.19683 13.1761 8.30601 13.4013 8.50498C13.6265 8.70395 13.7755 8.97959 13.8214 9.28215L14.9426 15.4327L17.713 8.19713H20.5108ZM31.5387 15.3633C31.5509 12.5546 27.7829 12.4 27.8088 11.1462C27.8165 10.7646 28.1673 10.3577 28.9377 10.2552C29.8381 10.1662 30.745 10.3297 31.5631 10.7283L32.0299 8.47312C31.2335 8.16305 30.3898 8.00282 29.5388 8C26.9072 8 25.0553 9.44616 25.04 11.5168C25.0232 13.0497 26.3626 13.9029 27.3725 14.4123C28.4084 14.9343 28.7562 15.2687 28.7455 15.7339C28.7455 16.4483 27.9171 16.7637 27.1513 16.7763C25.8135 16.7984 25.0354 16.4026 24.4161 16.1045L23.934 18.4354C24.5564 18.7303 25.7051 18.9874 26.895 19C29.6928 19 31.5219 17.5806 31.5311 15.3601L31.5387 15.3633ZM38.4813 18.8297H40.9435L38.8017 8.19713H36.5287C36.2849 8.19541 36.0464 8.26975 35.8441 8.41043C35.6419 8.55111 35.4855 8.75159 35.3952 8.98566L31.4029 18.8376H34.1946L34.7591 17.2479H38.1747L38.4813 18.8297ZM35.5218 15.0668L36.9238 11.0721L37.7308 15.0668H35.5218ZM24.3154 8.19713L22.1125 18.8376H19.4505L21.6534 8.19713H24.3154Z" fill="url(#paint0_linear_103_55)"/>
<rect x="0.5" y="0.5" width="47.9435" height="26" rx="3.5" stroke="#E2E0DB"/>
<defs>
<linearGradient id="paint0_linear_103_55" x1="8" y1="13.5039" x2="40.9511" y2="13.5039" gradientUnits="userSpaceOnUse">
<stop stop-color="#272158"/>
<stop offset="1" stop-color="#164194"/>
</linearGradient>
</defs>
</svg>
