<svg width="15" height="14" viewBox="0 0 15 14" fill="white" xmlns="http://www.w3.org/2000/svg">
<path d="M1.53361 6.38672H6.86694V1.05339C6.86694 0.876574 6.93718 0.707005 7.06221 0.581981C7.18723 0.456957 7.3568 0.386719 7.53361 0.386719C7.71042 0.386719 7.87999 0.456957 8.00501 0.581981C8.13004 0.707005 8.20028 0.876574 8.20028 1.05339V6.38672H13.5336C13.7104 6.38672 13.88 6.45696 14.005 6.58198C14.13 6.70701 14.2003 6.87657 14.2003 7.05338C14.2003 7.2302 14.13 7.39977 14.005 7.52479C13.88 7.64981 13.7104 7.72005 13.5336 7.72005H8.20028V13.0534C8.20028 13.2302 8.13004 13.3998 8.00501 13.5248C7.87999 13.6498 7.71042 13.7201 7.53361 13.7201C7.3568 13.7201 7.18723 13.6498 7.06221 13.5248C6.93718 13.3998 6.86694 13.2302 6.86694 13.0534V7.72005H1.53361C1.3568 7.72005 1.18723 7.64981 1.06221 7.52479C0.937181 7.39977 0.866943 7.2302 0.866943 7.05338C0.866943 6.87657 0.937181 6.70701 1.06221 6.58198C1.18723 6.45696 1.3568 6.38672 1.53361 6.38672Z" fill="white"/>
</svg>
