<svg width="34" height="32" viewBox="0 0 34 32" fill="none" xmlns="http://www.w3.org/2000/svg">
<path d="M17.5 0.500122H16.7C8.13954 0.500122 1.19995 7.43971 1.19995 16.0001C1.19995 24.5605 8.13954 31.5001 16.7 31.5001H17.5C26.0604 31.5001 33 24.5605 33 16.0001C33 7.43971 26.0604 0.500122 17.5 0.500122Z" fill="#F2F0EC"/>
<path d="M17.5 0.500122H16.7C8.13954 0.500122 1.19995 7.43971 1.19995 16.0001C1.19995 24.5605 8.13954 31.5001 16.7 31.5001H17.5C26.0604 31.5001 33 24.5605 33 16.0001C33 7.43971 26.0604 0.500122 17.5 0.500122Z" stroke="#F2F0EC"/>
<path fill-rule="evenodd" clip-rule="evenodd" d="M17.1003 11.6563C18.2549 10.3418 20.3934 9.80582 22.1253 10.9544C23.0437 11.5669 23.6209 12.6006 23.6603 13.6854C23.7456 16.1612 21.4955 18.1456 18.0515 21.183L17.9793 21.2468C17.4808 21.6934 16.7133 21.6934 16.2147 21.2531L16.1491 21.1957L16.1095 21.1607C12.6878 18.1368 10.4488 16.1581 10.5403 13.6918C10.5797 12.6006 11.1569 11.5669 12.0753 10.9544C13.8072 9.79944 15.9457 10.3418 17.1003 11.6563Z" fill="#00546F"/>
</svg>
