<svg width="34" height="32" viewBox="0 0 34 32" fill="none" xmlns="http://www.w3.org/2000/svg">
<rect x="1.19995" y="0.500122" width="31.8" height="31" rx="15.5" fill="#F2F0EC"/>
<rect x="1.19995" y="0.500122" width="31.8" height="31" rx="15.5" stroke="#F2F0EC"/>
<path fill-rule="evenodd" clip-rule="evenodd" d="M17.1003 11.6563C18.2549 10.3418 20.3934 9.8058 22.1253 10.9544C23.0437 11.5669 23.6209 12.6006 23.6603 13.6854C23.7456 16.1612 21.4955 18.1456 18.0515 21.183L17.9793 21.2468C17.4808 21.6934 16.7133 21.6934 16.2147 21.2531L16.1491 21.1957L16.1095 21.1607C12.6878 18.1368 10.4488 16.1581 10.5403 13.6918C10.5797 12.6006 11.1569 11.5669 12.0753 10.9544C13.8072 9.79942 15.9457 10.3418 17.1003 11.6563ZM17.1003 20.3088L17.1659 20.245C20.2884 17.4948 22.3483 15.6763 22.3483 13.8322C22.3483 12.556 21.3643 11.5988 20.0523 11.5988C19.042 11.5988 18.058 12.2306 17.7169 13.1047H16.4902C16.1425 12.2306 15.1585 11.5988 14.1483 11.5988C12.8363 11.5988 11.8523 12.556 11.8523 13.8322C11.8523 15.6763 13.9121 17.4948 17.0347 20.245L17.1003 20.3088Z" fill="#00546F"/>
</svg>
