<svg width="41" height="41" viewBox="0 0 41 41" fill="none" xmlns="http://www.w3.org/2000/svg">
<path d="M31.2255 11.8636C31.8744 11.2147 31.8744 10.1626 31.2255 9.51362C30.5765 8.86469 29.5244 8.86469 28.8755 9.51362L20.7338 17.6553L12.5921 9.51362C11.9432 8.86469 10.8911 8.86469 10.2421 9.51362C9.5932 10.1626 9.5932 11.2147 10.2421 11.8636L18.3838 20.0053L10.2421 28.147C9.5932 28.7959 9.5932 29.848 10.2421 30.497C10.8911 31.1459 11.9432 31.1459 12.5921 30.497L20.7338 22.3553L28.8755 30.497C29.5244 31.1459 30.5765 31.1459 31.2255 30.497C31.8744 29.848 31.8744 28.7959 31.2255 28.147L23.0838 20.0053L31.2255 11.8636Z" fill="#00546F"/>
</svg>
